<svg xmlns="http://www.w3.org/2000/svg" xmlns:xlink="http://www.w3.org/1999/xlink" height="800" width="1200" viewBox="-17.0079 -4.758 147.4018 28.548"><path fill="#0067B1" d="M19.035 0l-7.613 8.754h7.581v1.523h-7.581l7.613 8.755H15.23L3.807 10.277H0l1.523-1.523h2.284L15.23 0z"/><g transform="translate(-2.432 -3.07)"><defs><path id="a" d="M2.431 3.071h113.387v19.031H2.431z"/></defs><clipPath id="b"><use height="100%" width="100%" overflow="visible" xlink:href="#a"/></clipPath><path d="M28.948 10.147v1.442h6.819v2.005h-6.819v1.454h7.489v2.306h-10.21V7.828h10.208v2.319h-7.487m8.846 7.207V7.828h4.579l3.205 5.949 3.204-5.949h4.659v9.526h-2.729v-6.78H50.6l-3.678 6.78h-2.69l-3.652-6.785h-.07v6.785zm17.017 0V7.828h8.03c1.998 0 2.967.864 2.967 2.66 0 1.024-.417 1.65-1.312 2.017 1.127.199 1.618.904 1.618 2.268 0 1.835-.882 2.581-2.856 2.581zm8.202-6.604c0-.471-.282-.786-.698-.786h-4.78v1.572h4.78c.452 0 .698-.274.698-.786m.295 3.564c0-.511-.295-.838-.748-.838h-5.025v1.717h5.025c.478 0 .748-.317.748-.879m24.2-.837l-1.824-3.368-1.784 3.368zm-8.745 3.877L83.9 7.828h3.659l5.049 9.526H89.45l-.906-1.586h-5.732l-.919 1.586zm28.116-7.155v2.332h5.188c.76 0 .981-.353.981-1.257 0-.734-.282-1.075-.981-1.075zm8.939.747c0 1.572-.368 2.36-1.483 2.648.932.235 1.409.838 1.409 1.809v1.951h-2.72V15.9c0-.813-.332-.983-1.228-.983h-4.918v2.437h-2.732V7.828h8.018c2.698 0 3.654.642 3.654 3.118m-45.92-.747v2.332h5.187c.759 0 .98-.353.98-1.257 0-.734-.282-1.075-.98-1.075zm8.937.747c0 1.572-.367 2.36-1.483 2.648.933.235 1.411.838 1.411 1.809v1.951h-2.722V15.9c0-.813-.332-.983-1.226-.983h-4.917v2.437h-2.735V7.828h8.02c2.695 0 3.652.642 3.652 3.118m16.493-.799v1.442h6.816v2.005h-6.816v1.454h7.489v2.306h-10.21V7.828h10.207v2.319z" fill="#0067B1" clip-rule="evenodd" fill-rule="evenodd" clip-path="url(#b)"/></g></svg>